<svg width="30" height="30" viewBox="0 0 30 30" fill="none" xmlns="http://www.w3.org/2000/svg">
<rect width="30" height="30" rx="15" fill="#F0F1F8"/>
<path d="M14.9997 16.9994C16.3252 16.9994 17.3997 15.9248 17.3997 14.5993C17.3997 13.2738 16.3252 12.1992 14.9997 12.1992C13.6742 12.1992 12.5996 13.2738 12.5996 14.5993C12.5996 15.9248 13.6742 16.9994 14.9997 16.9994Z" fill="#86879D"/>
<path d="M23.9643 14.3962C23.2585 12.5707 22.0334 10.9921 20.4402 9.8553C18.8471 8.71855 16.9557 8.07355 15 8C13.0443 8.07355 11.1529 8.71855 9.55977 9.8553C7.96661 10.9921 6.74146 12.5707 6.03575 14.3962C5.98808 14.528 5.98808 14.6724 6.03575 14.8042C6.74146 16.6297 7.96661 18.2083 9.55977 19.3451C11.1529 20.4818 13.0443 21.1268 15 21.2004C16.9557 21.1268 18.8471 20.4818 20.4402 19.3451C22.0334 18.2083 23.2585 16.6297 23.9643 14.8042C24.0119 14.6724 24.0119 14.528 23.9643 14.3962ZM15 18.5003C14.2286 18.5003 13.4746 18.2716 12.8332 17.843C12.1918 17.4145 11.692 16.8053 11.3968 16.0927C11.1016 15.38 11.0243 14.5959 11.1748 13.8393C11.3253 13.0828 11.6968 12.3878 12.2422 11.8424C12.7876 11.297 13.4826 10.9255 14.2391 10.775C14.9957 10.6245 15.7799 10.7018 16.4925 10.997C17.2052 11.2921 17.8143 11.792 18.2428 12.4334C18.6714 13.0748 18.9001 13.8288 18.9001 14.6002C18.8985 15.6341 18.4871 16.6252 17.756 17.3562C17.025 18.0873 16.0339 18.4987 15 18.5003Z" fill="#86879D"/>
</svg>
