<svg width="24" height="25" viewBox="0 0 24 25" fill="none" xmlns="http://www.w3.org/2000/svg">
<g clip-path="url(#clip0_1515:9554)">
<path d="M2.1484 13.1629C1.78291 12.7974 1.78291 12.2026 2.14924 11.8363L10.3661 3.59906C10.7318 3.2325 10.7311 2.63887 10.3645 2.2732C9.9979 1.90758 9.40427 1.90828 9.0386 2.27484L0.822586 10.5112C-0.274055 11.6078 -0.274055 13.3922 0.821742 14.488L9.0386 22.7251C9.22179 22.9087 9.46202 23.0005 9.7024 23.0005C9.94193 23.0005 10.1816 22.9092 10.3645 22.7267C10.7311 22.361 10.7318 21.7674 10.3661 21.4008L2.1484 13.1629Z" fill="#3F4395"/>
<path d="M23.0626 11.5624H6.04607C5.52824 11.5624 5.10852 11.9821 5.10852 12.5C5.10852 13.0178 5.52824 13.4375 6.04607 13.4375H23.0625C23.5804 13.4375 24.0001 13.0178 24.0001 12.5C24.0001 11.9821 23.5804 11.5624 23.0626 11.5624Z" fill="#3F4395"/>
</g>
<defs>
<clipPath id="clip0_1515:9554">
<rect width="24" height="24" fill="white" transform="translate(0 0.5)"/>
</clipPath>
</defs>
</svg>
